<svg preserveAspectRatio="none" width="100%" height="100%" overflow="visible" style="display: block;" viewBox="0 0 21.9947 21.9947" fill="none" xmlns="http://www.w3.org/2000/svg">
<g id="Icon" clip-path="url(#clip0_0_29)">
<path id="Vector" d="M10.9976 0.999952C5.49893 0.999952 1 5.49888 1 10.9976C1 12.9971 1.69983 14.7967 2.79957 16.2963L1.49988 20.4953L5.89883 19.1956C7.39847 20.1954 9.09807 20.7952 10.9976 20.7952C16.4963 20.7952 20.9952 16.2963 20.9952 10.7976C20.9952 5.29893 16.4963 0.8 10.9976 0.8" stroke="var(--stroke-0, #C99619)" stroke-width="1.79957" stroke-linecap="round" stroke-linejoin="round"/>
<path id="Vector_2" d="M6.99857 11.9976C7.55085 11.9976 7.99857 11.5499 7.99857 10.9976C7.99857 10.4453 7.55085 9.99761 6.99857 9.99761C6.44628 9.99761 5.99857 10.4453 5.99857 10.9976C5.99857 11.5499 6.44628 11.9976 6.99857 11.9976Z" fill="var(--fill-0, #C99619)"/>
<path id="Vector_3" d="M10.9976 11.9976C11.5499 11.9976 11.9976 11.5499 11.9976 10.9976C11.9976 10.4453 11.5499 9.99761 10.9976 9.99761C10.4453 9.99761 9.99761 10.4453 9.99761 10.9976C9.99761 11.5499 10.4453 11.9976 10.9976 11.9976Z" fill="var(--fill-0, #C99619)"/>
<path id="Vector_4" d="M14.9967 11.9976C15.5489 11.9976 15.9967 11.5499 15.9967 10.9976C15.9967 10.4453 15.5489 9.99761 14.9967 9.99761C14.4444 9.99761 13.9967 10.4453 13.9967 10.9976C13.9967 11.5499 14.4444 11.9976 14.9967 11.9976Z" fill="var(--fill-0, #C99619)"/>
</g>
<defs>
<clipPath id="clip0_0_29">
<rect width="21.9947" height="21.9947" fill="white"/>
</clipPath>
</defs>
</svg>
