<svg preserveAspectRatio="none" width="100%" height="100%" overflow="visible" style="display: block;" viewBox="0 0 21.9947 21.9947" fill="none" xmlns="http://www.w3.org/2000/svg">
<g id="Icon">
<path id="Vector" d="M14.9964 1.99952H6.99833C5.89402 1.99952 4.99881 2.89474 4.99881 3.99905V17.9957C4.99881 19.1 5.89402 19.9952 6.99833 19.9952H14.9964C16.1007 19.9952 16.9959 19.1 16.9959 17.9957V3.99905C16.9959 2.89474 16.1007 1.99952 14.9964 1.99952Z" stroke="var(--stroke-0, #C99619)" stroke-width="1.79957"/>
<path id="Vector_2" d="M10.9976 17.9962C11.5499 17.9962 11.9976 17.5485 11.9976 16.9962C11.9976 16.4439 11.5499 15.9962 10.9976 15.9962C10.4453 15.9962 9.99761 16.4439 9.99761 16.9962C9.99761 17.5485 10.4453 17.9962 10.9976 17.9962Z" fill="var(--fill-0, #C99619)"/>
<path id="Vector_3" d="M13.9967 4.99881H7.99809C7.44594 4.99881 6.99833 5.44641 6.99833 5.99857V12.9969C6.99833 13.549 7.44594 13.9967 7.99809 13.9967H13.9967C14.5488 13.9967 14.9964 13.549 14.9964 12.9969V5.99857C14.9964 5.44641 14.5488 4.99881 13.9967 4.99881Z" stroke="var(--stroke-0, #C99619)" stroke-width="1.49964"/>
</g>
</svg>
