<svg preserveAspectRatio="none" width="100%" height="100%" overflow="visible" style="display: block;" viewBox="0 0 21.9947 21.9947" fill="none" xmlns="http://www.w3.org/2000/svg">
<g id="Icon">
<path id="Vector" d="M16.9959 4.99881H4.99881C3.8945 4.99881 2.99928 5.89402 2.99928 6.99833V16.9959C2.99928 18.1002 3.8945 18.9955 4.99881 18.9955H16.9959C18.1002 18.9955 18.9955 18.1002 18.9955 16.9959V6.99833C18.9955 5.89402 18.1002 4.99881 16.9959 4.99881Z" stroke="var(--stroke-0, #C99619)" stroke-width="1.79957"/>
<path id="Vector_2" d="M6.99833 2.99928V6.99833M14.9964 2.99928V6.99833" stroke="var(--stroke-0, #C99619)" stroke-width="1.79957" stroke-linecap="round"/>
<path id="Vector_3" d="M2.99928 8.99785H18.9955" stroke="var(--stroke-0, #C99619)" stroke-width="1.79957" stroke-linecap="round"/>
<path id="Vector_4" d="M7.4984 13.7971C7.94023 13.7971 8.2984 13.4389 8.2984 12.9971C8.2984 12.5553 7.94023 12.1971 7.4984 12.1971C7.05657 12.1971 6.6984 12.5553 6.6984 12.9971C6.6984 13.4389 7.05657 13.7971 7.4984 13.7971Z" fill="var(--fill-0, #C99619)"/>
<path id="Vector_5" d="M10.9976 13.7971C11.4394 13.7971 11.7976 13.4389 11.7976 12.9971C11.7976 12.5553 11.4394 12.1971 10.9976 12.1971C10.5557 12.1971 10.1976 12.5553 10.1976 12.9971C10.1976 13.4389 10.5557 13.7971 10.9976 13.7971Z" fill="var(--fill-0, #C99619)"/>
<path id="Vector_6" d="M14.4967 13.7971C14.9386 13.7971 15.2967 13.4389 15.2967 12.9971C15.2967 12.5553 14.9386 12.1971 14.4967 12.1971C14.0549 12.1971 13.6967 12.5553 13.6967 12.9971C13.6967 13.4389 14.0549 13.7971 14.4967 13.7971Z" fill="var(--fill-0, #C99619)"/>
<path id="Vector_7" d="M7.4984 16.7964C7.94023 16.7964 8.2984 16.4382 8.2984 15.9964C8.2984 15.5546 7.94023 15.1964 7.4984 15.1964C7.05657 15.1964 6.6984 15.5546 6.6984 15.9964C6.6984 16.4382 7.05657 16.7964 7.4984 16.7964Z" fill="var(--fill-0, #C99619)"/>
<path id="Vector_8" d="M10.9976 16.7964C11.4394 16.7964 11.7976 16.4382 11.7976 15.9964C11.7976 15.5546 11.4394 15.1964 10.9976 15.1964C10.5557 15.1964 10.1976 15.5546 10.1976 15.9964C10.1976 16.4382 10.5557 16.7964 10.9976 16.7964Z" fill="var(--fill-0, #C99619)"/>
</g>
</svg>
